M48
; DRILL file {KiCad (5.1.6)-1} date 08/14/20 09:47:55
; FORMAT={-:-/ absolute / inch / decimal}
; #@! TF.CreationDate,2020-08-14T09:47:55+03:00
; #@! TF.GenerationSoftware,Kicad,Pcbnew,(5.1.6)-1
; #@! TF.FileFunction,Plated,1,2,PTH
FMAT,2
INCH
T1C0.0157
T2C0.0354
T3C0.0512
%
G90
G05
T1
X5.1969Y-3.6614
X5.4724Y-3.5827
X5.5512Y-3.7008
X5.5512Y-3.8189
X5.6693Y-3.5827
X5.693Y-3.628
X5.795Y-3.8235
X5.8268Y-3.5827
X5.8268Y-3.6614
X5.8553Y-3.749
X5.8553Y-3.8235
X5.8815Y-3.5358
X5.966Y-2.761
X6.0004Y-3.0984
X6.0095Y-4.145
X6.038Y-3.891
X6.038Y-4.596
X6.083Y-3.37
X6.093Y-4.145
X6.178Y-2.784
X6.265Y-4.637
X6.282Y-3.095
X6.297Y-3.664
X6.318Y-3.5935
X6.378Y-3.3858
X6.378Y-3.8976
X6.484Y-3.7549
X6.535Y-4.388
X6.5354Y-3.7795
X6.679Y-2.887
T2
X5.111Y-3.5005
X5.111Y-3.5793
X5.111Y-3.658
X5.111Y-3.7367
T3
X6.73Y-3.7425
X6.73Y-3.9425
X6.729Y-3.306
X6.729Y-3.506
X6.7275Y-4.1875
X6.7275Y-4.3875
X5.1575Y-4.0551
X5.1575Y-4.2551
T0
M30
