%TF.GenerationSoftware,KiCad,Pcbnew,(5.1.6)-1*%
%TF.CreationDate,2020-08-14T09:47:52+03:00*%
%TF.ProjectId,Circuit Thesis,43697263-7569-4742-9054-68657369732e,rev?*%
%TF.SameCoordinates,Original*%
%TF.FileFunction,Soldermask,Top*%
%TF.FilePolarity,Negative*%
%FSLAX46Y46*%
G04 Gerber Fmt 4.6, Leading zero omitted, Abs format (unit mm)*
G04 Created by KiCad (PCBNEW (5.1.6)-1) date 2020-08-14 09:47:52*
%MOMM*%
%LPD*%
G01*
G04 APERTURE LIST*
%ADD10C,0.100000*%
G04 APERTURE END LIST*
D10*
G36*
X174320857Y-115942272D02*
G01*
X174521043Y-116025192D01*
X174521045Y-116025193D01*
X174611738Y-116085792D01*
X174701208Y-116145574D01*
X174854426Y-116298792D01*
X174974808Y-116478957D01*
X175057728Y-116679143D01*
X175100000Y-116891658D01*
X175100000Y-117108342D01*
X175057728Y-117320857D01*
X174983524Y-117500000D01*
X174974807Y-117521045D01*
X174854425Y-117701209D01*
X174701209Y-117854425D01*
X174521045Y-117974807D01*
X174521044Y-117974808D01*
X174521043Y-117974808D01*
X174320857Y-118057728D01*
X174108342Y-118100000D01*
X173891658Y-118100000D01*
X173679143Y-118057728D01*
X173478957Y-117974808D01*
X173478956Y-117974808D01*
X173478955Y-117974807D01*
X173298791Y-117854425D01*
X173145575Y-117701209D01*
X173025193Y-117521045D01*
X173016476Y-117500000D01*
X172942272Y-117320857D01*
X172900000Y-117108342D01*
X172900000Y-116891658D01*
X172942272Y-116679143D01*
X173025192Y-116478957D01*
X173145574Y-116298792D01*
X173298792Y-116145574D01*
X173388262Y-116085792D01*
X173478955Y-116025193D01*
X173478957Y-116025192D01*
X173679143Y-115942272D01*
X173891658Y-115900000D01*
X174108342Y-115900000D01*
X174320857Y-115942272D01*
G37*
G36*
X128320857Y-115942272D02*
G01*
X128521043Y-116025192D01*
X128521045Y-116025193D01*
X128611738Y-116085792D01*
X128701208Y-116145574D01*
X128854426Y-116298792D01*
X128974808Y-116478957D01*
X129057728Y-116679143D01*
X129100000Y-116891658D01*
X129100000Y-117108342D01*
X129057728Y-117320857D01*
X128983524Y-117500000D01*
X128974807Y-117521045D01*
X128854425Y-117701209D01*
X128701209Y-117854425D01*
X128521045Y-117974807D01*
X128521044Y-117974808D01*
X128521043Y-117974808D01*
X128320857Y-118057728D01*
X128108342Y-118100000D01*
X127891658Y-118100000D01*
X127679143Y-118057728D01*
X127478957Y-117974808D01*
X127478956Y-117974808D01*
X127478955Y-117974807D01*
X127298791Y-117854425D01*
X127145575Y-117701209D01*
X127025193Y-117521045D01*
X127016476Y-117500000D01*
X126942272Y-117320857D01*
X126900000Y-117108342D01*
X126900000Y-116891658D01*
X126942272Y-116679143D01*
X127025192Y-116478957D01*
X127145574Y-116298792D01*
X127298792Y-116145574D01*
X127388262Y-116085792D01*
X127478955Y-116025193D01*
X127478957Y-116025192D01*
X127679143Y-115942272D01*
X127891658Y-115900000D01*
X128108342Y-115900000D01*
X128320857Y-115942272D01*
G37*
G36*
X145572000Y-117500000D02*
G01*
X142972000Y-117500000D01*
X142972000Y-110900000D01*
X145572000Y-110900000D01*
X145572000Y-117500000D01*
G37*
G36*
X171903500Y-112467500D02*
G01*
X169853500Y-112467500D01*
X169853500Y-110417500D01*
X171903500Y-110417500D01*
X171903500Y-112467500D01*
G37*
G36*
X161003000Y-112028500D02*
G01*
X158783000Y-112028500D01*
X158783000Y-108238500D01*
X161003000Y-108238500D01*
X161003000Y-112028500D01*
G37*
G36*
X131166963Y-107068130D02*
G01*
X131298982Y-107094390D01*
X131485520Y-107171656D01*
X131653400Y-107283830D01*
X131796170Y-107426600D01*
X131908344Y-107594480D01*
X131985610Y-107781018D01*
X132025000Y-107979046D01*
X132025000Y-108180954D01*
X131985610Y-108378982D01*
X131908344Y-108565520D01*
X131796170Y-108733400D01*
X131653400Y-108876170D01*
X131485520Y-108988344D01*
X131298982Y-109065610D01*
X131166963Y-109091870D01*
X131100955Y-109105000D01*
X130899045Y-109105000D01*
X130833037Y-109091870D01*
X130701018Y-109065610D01*
X130514480Y-108988344D01*
X130346600Y-108876170D01*
X130203830Y-108733400D01*
X130091656Y-108565520D01*
X130014390Y-108378982D01*
X129975000Y-108180954D01*
X129975000Y-107979046D01*
X130014390Y-107781018D01*
X130091656Y-107594480D01*
X130203830Y-107426600D01*
X130346600Y-107283830D01*
X130514480Y-107171656D01*
X130701018Y-107094390D01*
X130833037Y-107068130D01*
X130899045Y-107055000D01*
X131100955Y-107055000D01*
X131166963Y-107068130D01*
G37*
G36*
X171045463Y-105350630D02*
G01*
X171177482Y-105376890D01*
X171364020Y-105454156D01*
X171531900Y-105566330D01*
X171674670Y-105709100D01*
X171786844Y-105876980D01*
X171864110Y-106063518D01*
X171903500Y-106261546D01*
X171903500Y-106463454D01*
X171864110Y-106661482D01*
X171786844Y-106848020D01*
X171674670Y-107015900D01*
X171531900Y-107158670D01*
X171364020Y-107270844D01*
X171177482Y-107348110D01*
X171045463Y-107374370D01*
X170979455Y-107387500D01*
X170777545Y-107387500D01*
X170711537Y-107374370D01*
X170579518Y-107348110D01*
X170392980Y-107270844D01*
X170225100Y-107158670D01*
X170082330Y-107015900D01*
X169970156Y-106848020D01*
X169892890Y-106661482D01*
X169853500Y-106463454D01*
X169853500Y-106261546D01*
X169892890Y-106063518D01*
X169970156Y-105876980D01*
X170082330Y-105709100D01*
X170225100Y-105566330D01*
X170392980Y-105454156D01*
X170579518Y-105376890D01*
X170711537Y-105350630D01*
X170777545Y-105337500D01*
X170979455Y-105337500D01*
X171045463Y-105350630D01*
G37*
G36*
X161003000Y-105248500D02*
G01*
X158783000Y-105248500D01*
X158783000Y-101458500D01*
X161003000Y-101458500D01*
X161003000Y-105248500D01*
G37*
G36*
X145572000Y-105000000D02*
G01*
X142972000Y-105000000D01*
X142972000Y-98400000D01*
X145572000Y-98400000D01*
X145572000Y-105000000D01*
G37*
G36*
X132025000Y-104025000D02*
G01*
X129975000Y-104025000D01*
X129975000Y-101975000D01*
X132025000Y-101975000D01*
X132025000Y-104025000D01*
G37*
G36*
X171967000Y-101164500D02*
G01*
X169917000Y-101164500D01*
X169917000Y-99114500D01*
X171967000Y-99114500D01*
X171967000Y-101164500D01*
G37*
G36*
X159377400Y-97944200D02*
G01*
X157157400Y-97944200D01*
X157157400Y-94154200D01*
X159377400Y-94154200D01*
X159377400Y-97944200D01*
G37*
G36*
X171108963Y-94047630D02*
G01*
X171240982Y-94073890D01*
X171427520Y-94151156D01*
X171595400Y-94263330D01*
X171738170Y-94406100D01*
X171850344Y-94573980D01*
X171927610Y-94760518D01*
X171967000Y-94958546D01*
X171967000Y-95160454D01*
X171927610Y-95358482D01*
X171850344Y-95545020D01*
X171738170Y-95712900D01*
X171595400Y-95855670D01*
X171427520Y-95967844D01*
X171240982Y-96045110D01*
X171108963Y-96071370D01*
X171042955Y-96084500D01*
X170841045Y-96084500D01*
X170775037Y-96071370D01*
X170643018Y-96045110D01*
X170456480Y-95967844D01*
X170288600Y-95855670D01*
X170145830Y-95712900D01*
X170033656Y-95545020D01*
X169956390Y-95358482D01*
X169917000Y-95160454D01*
X169917000Y-94958546D01*
X169956390Y-94760518D01*
X170033656Y-94573980D01*
X170145830Y-94406100D01*
X170288600Y-94263330D01*
X170456480Y-94151156D01*
X170643018Y-94073890D01*
X170775037Y-94047630D01*
X170841045Y-94034500D01*
X171042955Y-94034500D01*
X171108963Y-94047630D01*
G37*
G36*
X130494400Y-95588200D02*
G01*
X129144400Y-95588200D01*
X129144400Y-94238200D01*
X130494400Y-94238200D01*
X130494400Y-95588200D01*
G37*
G36*
X130016289Y-92264139D02*
G01*
X130139131Y-92315022D01*
X130249687Y-92388893D01*
X130343707Y-92482913D01*
X130417578Y-92593469D01*
X130468461Y-92716311D01*
X130494400Y-92846717D01*
X130494400Y-92979683D01*
X130468461Y-93110089D01*
X130417578Y-93232931D01*
X130343707Y-93343487D01*
X130249687Y-93437507D01*
X130139131Y-93511378D01*
X130016289Y-93562261D01*
X129885883Y-93588200D01*
X129752917Y-93588200D01*
X129622511Y-93562261D01*
X129499669Y-93511378D01*
X129389113Y-93437507D01*
X129295093Y-93343487D01*
X129221222Y-93232931D01*
X129170339Y-93110089D01*
X129144400Y-92979683D01*
X129144400Y-92846717D01*
X129170339Y-92716311D01*
X129221222Y-92593469D01*
X129295093Y-92482913D01*
X129389113Y-92388893D01*
X129499669Y-92315022D01*
X129622511Y-92264139D01*
X129752917Y-92238200D01*
X129885883Y-92238200D01*
X130016289Y-92264139D01*
G37*
G36*
X130016289Y-90264139D02*
G01*
X130139131Y-90315022D01*
X130249687Y-90388893D01*
X130343707Y-90482913D01*
X130417578Y-90593469D01*
X130468461Y-90716311D01*
X130494400Y-90846717D01*
X130494400Y-90979683D01*
X130468461Y-91110089D01*
X130417578Y-91232931D01*
X130343707Y-91343487D01*
X130249687Y-91437507D01*
X130139131Y-91511378D01*
X130016289Y-91562261D01*
X129885883Y-91588200D01*
X129752917Y-91588200D01*
X129622511Y-91562261D01*
X129499669Y-91511378D01*
X129389113Y-91437507D01*
X129295093Y-91343487D01*
X129221222Y-91232931D01*
X129170339Y-91110089D01*
X129144400Y-90979683D01*
X129144400Y-90846717D01*
X129170339Y-90716311D01*
X129221222Y-90593469D01*
X129295093Y-90482913D01*
X129389113Y-90388893D01*
X129499669Y-90315022D01*
X129622511Y-90264139D01*
X129752917Y-90238200D01*
X129885883Y-90238200D01*
X130016289Y-90264139D01*
G37*
G36*
X159377400Y-91164200D02*
G01*
X157157400Y-91164200D01*
X157157400Y-87374200D01*
X159377400Y-87374200D01*
X159377400Y-91164200D01*
G37*
G36*
X171941600Y-90077400D02*
G01*
X169891600Y-90077400D01*
X169891600Y-88027400D01*
X171941600Y-88027400D01*
X171941600Y-90077400D01*
G37*
G36*
X130016289Y-88264139D02*
G01*
X130139131Y-88315022D01*
X130249687Y-88388893D01*
X130343707Y-88482913D01*
X130417578Y-88593469D01*
X130468461Y-88716311D01*
X130494400Y-88846717D01*
X130494400Y-88979683D01*
X130468461Y-89110089D01*
X130417578Y-89232931D01*
X130343707Y-89343487D01*
X130249687Y-89437507D01*
X130139131Y-89511378D01*
X130016289Y-89562261D01*
X129885883Y-89588200D01*
X129752917Y-89588200D01*
X129622511Y-89562261D01*
X129499669Y-89511378D01*
X129389113Y-89437507D01*
X129295093Y-89343487D01*
X129221222Y-89232931D01*
X129170339Y-89110089D01*
X129144400Y-88979683D01*
X129144400Y-88846717D01*
X129170339Y-88716311D01*
X129221222Y-88593469D01*
X129295093Y-88482913D01*
X129389113Y-88388893D01*
X129499669Y-88315022D01*
X129622511Y-88264139D01*
X129752917Y-88238200D01*
X129885883Y-88238200D01*
X130016289Y-88264139D01*
G37*
G36*
X145087500Y-89411000D02*
G01*
X142567500Y-89411000D01*
X142567500Y-82851000D01*
X145087500Y-82851000D01*
X145087500Y-89411000D01*
G37*
G36*
X158338800Y-85481000D02*
G01*
X155448800Y-85481000D01*
X155448800Y-84191000D01*
X158338800Y-84191000D01*
X158338800Y-85481000D01*
G37*
G36*
X171083563Y-82960530D02*
G01*
X171215582Y-82986790D01*
X171402120Y-83064056D01*
X171570000Y-83176230D01*
X171712770Y-83319000D01*
X171824944Y-83486880D01*
X171902210Y-83673418D01*
X171941600Y-83871446D01*
X171941600Y-84073354D01*
X171902210Y-84271382D01*
X171824944Y-84457920D01*
X171712770Y-84625800D01*
X171570000Y-84768570D01*
X171402120Y-84880744D01*
X171215582Y-84958010D01*
X171083563Y-84984270D01*
X171017555Y-84997400D01*
X170815645Y-84997400D01*
X170749637Y-84984270D01*
X170617618Y-84958010D01*
X170431080Y-84880744D01*
X170263200Y-84768570D01*
X170120430Y-84625800D01*
X170008256Y-84457920D01*
X169930990Y-84271382D01*
X169891600Y-84073354D01*
X169891600Y-83871446D01*
X169930990Y-83673418D01*
X170008256Y-83486880D01*
X170120430Y-83319000D01*
X170263200Y-83176230D01*
X170431080Y-83064056D01*
X170617618Y-82986790D01*
X170749637Y-82960530D01*
X170815645Y-82947400D01*
X171017555Y-82947400D01*
X171083563Y-82960530D01*
G37*
G36*
X163168800Y-82941000D02*
G01*
X160278800Y-82941000D01*
X160278800Y-81651000D01*
X163168800Y-81651000D01*
X163168800Y-82941000D01*
G37*
G36*
X158338800Y-80401000D02*
G01*
X155448800Y-80401000D01*
X155448800Y-79111000D01*
X158338800Y-79111000D01*
X158338800Y-80401000D01*
G37*
G36*
X145087500Y-76661000D02*
G01*
X142567500Y-76661000D01*
X142567500Y-70101000D01*
X145087500Y-70101000D01*
X145087500Y-76661000D01*
G37*
G36*
X161034000Y-76415000D02*
G01*
X159514000Y-76415000D01*
X159514000Y-75315000D01*
X161034000Y-75315000D01*
X161034000Y-76415000D01*
G37*
G36*
X161034000Y-74545000D02*
G01*
X159514000Y-74545000D01*
X159514000Y-73445000D01*
X161034000Y-73445000D01*
X161034000Y-74545000D01*
G37*
G36*
X168366600Y-73629000D02*
G01*
X166862600Y-73629000D01*
X166862600Y-72929000D01*
X168366600Y-72929000D01*
X168366600Y-73629000D01*
G37*
G36*
X128320857Y-69942272D02*
G01*
X128521043Y-70025192D01*
X128521045Y-70025193D01*
X128611738Y-70085792D01*
X128701208Y-70145574D01*
X128854426Y-70298792D01*
X128974808Y-70478957D01*
X129057728Y-70679143D01*
X129100000Y-70891658D01*
X129100000Y-71108342D01*
X129057728Y-71320857D01*
X128974808Y-71521043D01*
X128974807Y-71521045D01*
X128854425Y-71701209D01*
X128701209Y-71854425D01*
X128521045Y-71974807D01*
X128521044Y-71974808D01*
X128521043Y-71974808D01*
X128320857Y-72057728D01*
X128108342Y-72100000D01*
X127891658Y-72100000D01*
X127679143Y-72057728D01*
X127478957Y-71974808D01*
X127478956Y-71974808D01*
X127478955Y-71974807D01*
X127298791Y-71854425D01*
X127145575Y-71701209D01*
X127025193Y-71521045D01*
X127025192Y-71521043D01*
X126942272Y-71320857D01*
X126900000Y-71108342D01*
X126900000Y-70891658D01*
X126942272Y-70679143D01*
X127025192Y-70478957D01*
X127145574Y-70298792D01*
X127298792Y-70145574D01*
X127388262Y-70085792D01*
X127478955Y-70025193D01*
X127478957Y-70025192D01*
X127679143Y-69942272D01*
X127891658Y-69900000D01*
X128108342Y-69900000D01*
X128320857Y-69942272D01*
G37*
G36*
X174320857Y-69942272D02*
G01*
X174521043Y-70025192D01*
X174521045Y-70025193D01*
X174611738Y-70085792D01*
X174701208Y-70145574D01*
X174854426Y-70298792D01*
X174974808Y-70478957D01*
X175057728Y-70679143D01*
X175100000Y-70891658D01*
X175100000Y-71108342D01*
X175057728Y-71320857D01*
X174974808Y-71521043D01*
X174974807Y-71521045D01*
X174854425Y-71701209D01*
X174701209Y-71854425D01*
X174521045Y-71974807D01*
X174521044Y-71974808D01*
X174521043Y-71974808D01*
X174320857Y-72057728D01*
X174108342Y-72100000D01*
X173891658Y-72100000D01*
X173679143Y-72057728D01*
X173478957Y-71974808D01*
X173478956Y-71974808D01*
X173478955Y-71974807D01*
X173298791Y-71854425D01*
X173145575Y-71701209D01*
X173025193Y-71521045D01*
X173025192Y-71521043D01*
X172942272Y-71320857D01*
X172900000Y-71108342D01*
X172900000Y-70891658D01*
X172942272Y-70679143D01*
X173025192Y-70478957D01*
X173145574Y-70298792D01*
X173298792Y-70145574D01*
X173388262Y-70085792D01*
X173478955Y-70025193D01*
X173478957Y-70025192D01*
X173679143Y-69942272D01*
X173891658Y-69900000D01*
X174108342Y-69900000D01*
X174320857Y-69942272D01*
G37*
M02*
