%TF.GenerationSoftware,KiCad,Pcbnew,(5.1.6)-1*%
%TF.CreationDate,2020-08-14T09:47:52+03:00*%
%TF.ProjectId,Circuit Thesis,43697263-7569-4742-9054-68657369732e,rev?*%
%TF.SameCoordinates,Original*%
%TF.FileFunction,Legend,Top*%
%TF.FilePolarity,Positive*%
%FSLAX46Y46*%
G04 Gerber Fmt 4.6, Leading zero omitted, Abs format (unit mm)*
G04 Created by KiCad (PCBNEW (5.1.6)-1) date 2020-08-14 09:47:52*
%MOMM*%
%LPD*%
G01*
G04 APERTURE LIST*
%ADD10C,0.100000*%
%ADD11C,0.150000*%
%ADD12C,0.127000*%
%ADD13C,0.200000*%
G04 APERTURE END LIST*
D10*
X167918190Y-114463580D02*
X167442000Y-114463580D01*
X167394380Y-114939771D01*
X167442000Y-114892152D01*
X167537238Y-114844533D01*
X167775333Y-114844533D01*
X167870571Y-114892152D01*
X167918190Y-114939771D01*
X167965809Y-115035009D01*
X167965809Y-115273104D01*
X167918190Y-115368342D01*
X167870571Y-115415961D01*
X167775333Y-115463580D01*
X167537238Y-115463580D01*
X167442000Y-115415961D01*
X167394380Y-115368342D01*
X168251523Y-114463580D02*
X168584857Y-115463580D01*
X168918190Y-114463580D01*
X170203904Y-114463580D02*
X170394380Y-114463580D01*
X170489619Y-114511200D01*
X170584857Y-114606438D01*
X170632476Y-114796914D01*
X170632476Y-115130247D01*
X170584857Y-115320723D01*
X170489619Y-115415961D01*
X170394380Y-115463580D01*
X170203904Y-115463580D01*
X170108666Y-115415961D01*
X170013428Y-115320723D01*
X169965809Y-115130247D01*
X169965809Y-114796914D01*
X170013428Y-114606438D01*
X170108666Y-114511200D01*
X170203904Y-114463580D01*
X171489619Y-114796914D02*
X171489619Y-115463580D01*
X171061047Y-114796914D02*
X171061047Y-115320723D01*
X171108666Y-115415961D01*
X171203904Y-115463580D01*
X171346761Y-115463580D01*
X171442000Y-115415961D01*
X171489619Y-115368342D01*
X171822952Y-114796914D02*
X172203904Y-114796914D01*
X171965809Y-114463580D02*
X171965809Y-115320723D01*
X172013428Y-115415961D01*
X172108666Y-115463580D01*
X172203904Y-115463580D01*
X172537238Y-114796914D02*
X172537238Y-115796914D01*
X172537238Y-114844533D02*
X172632476Y-114796914D01*
X172822952Y-114796914D01*
X172918190Y-114844533D01*
X172965809Y-114892152D01*
X173013428Y-114987390D01*
X173013428Y-115273104D01*
X172965809Y-115368342D01*
X172918190Y-115415961D01*
X172822952Y-115463580D01*
X172632476Y-115463580D01*
X172537238Y-115415961D01*
X173870571Y-114796914D02*
X173870571Y-115463580D01*
X173442000Y-114796914D02*
X173442000Y-115320723D01*
X173489619Y-115415961D01*
X173584857Y-115463580D01*
X173727714Y-115463580D01*
X173822952Y-115415961D01*
X173870571Y-115368342D01*
X174203904Y-114796914D02*
X174584857Y-114796914D01*
X174346761Y-114463580D02*
X174346761Y-115320723D01*
X174394380Y-115415961D01*
X174489619Y-115463580D01*
X174584857Y-115463580D01*
D11*
X132862628Y-97432904D02*
X132815009Y-97575761D01*
X132767390Y-97623380D01*
X132672152Y-97671000D01*
X132529295Y-97671000D01*
X132434057Y-97623380D01*
X132386438Y-97575761D01*
X132338819Y-97480523D01*
X132338819Y-97099571D01*
X133338819Y-97099571D01*
X133338819Y-97432904D01*
X133291200Y-97528142D01*
X133243580Y-97575761D01*
X133148342Y-97623380D01*
X133053104Y-97623380D01*
X132957866Y-97575761D01*
X132910247Y-97528142D01*
X132862628Y-97432904D01*
X132862628Y-97099571D01*
X132624533Y-98051952D02*
X132624533Y-98528142D01*
X132338819Y-97956714D02*
X133338819Y-98290047D01*
X132338819Y-98623380D01*
X133338819Y-98813857D02*
X133338819Y-99385285D01*
X132338819Y-99099571D02*
X133338819Y-99099571D01*
X165441380Y-101858628D02*
X165441380Y-101668152D01*
X165489000Y-101572914D01*
X165584238Y-101477676D01*
X165774714Y-101430057D01*
X166108047Y-101430057D01*
X166298523Y-101477676D01*
X166393761Y-101572914D01*
X166441380Y-101668152D01*
X166441380Y-101858628D01*
X166393761Y-101953866D01*
X166298523Y-102049104D01*
X166108047Y-102096723D01*
X165774714Y-102096723D01*
X165584238Y-102049104D01*
X165489000Y-101953866D01*
X165441380Y-101858628D01*
X165917571Y-100668152D02*
X165965190Y-100525295D01*
X166012809Y-100477676D01*
X166108047Y-100430057D01*
X166250904Y-100430057D01*
X166346142Y-100477676D01*
X166393761Y-100525295D01*
X166441380Y-100620533D01*
X166441380Y-101001485D01*
X165441380Y-101001485D01*
X165441380Y-100668152D01*
X165489000Y-100572914D01*
X165536619Y-100525295D01*
X165631857Y-100477676D01*
X165727095Y-100477676D01*
X165822333Y-100525295D01*
X165869952Y-100572914D01*
X165917571Y-100668152D01*
X165917571Y-101001485D01*
X166441380Y-99477676D02*
X166441380Y-100049104D01*
X166441380Y-99763390D02*
X165441380Y-99763390D01*
X165584238Y-99858628D01*
X165679476Y-99953866D01*
X165727095Y-100049104D01*
X165466780Y-94670428D02*
X165466780Y-94479952D01*
X165514400Y-94384714D01*
X165609638Y-94289476D01*
X165800114Y-94241857D01*
X166133447Y-94241857D01*
X166323923Y-94289476D01*
X166419161Y-94384714D01*
X166466780Y-94479952D01*
X166466780Y-94670428D01*
X166419161Y-94765666D01*
X166323923Y-94860904D01*
X166133447Y-94908523D01*
X165800114Y-94908523D01*
X165609638Y-94860904D01*
X165514400Y-94765666D01*
X165466780Y-94670428D01*
X165942971Y-93479952D02*
X165990590Y-93337095D01*
X166038209Y-93289476D01*
X166133447Y-93241857D01*
X166276304Y-93241857D01*
X166371542Y-93289476D01*
X166419161Y-93337095D01*
X166466780Y-93432333D01*
X166466780Y-93813285D01*
X165466780Y-93813285D01*
X165466780Y-93479952D01*
X165514400Y-93384714D01*
X165562019Y-93337095D01*
X165657257Y-93289476D01*
X165752495Y-93289476D01*
X165847733Y-93337095D01*
X165895352Y-93384714D01*
X165942971Y-93479952D01*
X165942971Y-93813285D01*
X165562019Y-92860904D02*
X165514400Y-92813285D01*
X165466780Y-92718047D01*
X165466780Y-92479952D01*
X165514400Y-92384714D01*
X165562019Y-92337095D01*
X165657257Y-92289476D01*
X165752495Y-92289476D01*
X165895352Y-92337095D01*
X166466780Y-92908523D01*
X166466780Y-92289476D01*
X126979419Y-89493838D02*
X127979419Y-89493838D01*
X127265133Y-89922409D02*
X127265133Y-90398600D01*
X126979419Y-89827171D02*
X127979419Y-90160504D01*
X126979419Y-90493838D01*
X126979419Y-91350980D02*
X126979419Y-90779552D01*
X126979419Y-91065266D02*
X127979419Y-91065266D01*
X127836561Y-90970028D01*
X127741323Y-90874790D01*
X127693704Y-90779552D01*
X126979419Y-86776038D02*
X127979419Y-86776038D01*
X127265133Y-87204609D02*
X127265133Y-87680800D01*
X126979419Y-87109371D02*
X127979419Y-87442704D01*
X126979419Y-87776038D01*
X127884180Y-88061752D02*
X127931800Y-88109371D01*
X127979419Y-88204609D01*
X127979419Y-88442704D01*
X127931800Y-88537942D01*
X127884180Y-88585561D01*
X127788942Y-88633180D01*
X127693704Y-88633180D01*
X127550847Y-88585561D01*
X126979419Y-88014133D01*
X126979419Y-88633180D01*
X126979419Y-94680209D02*
X127979419Y-94680209D01*
X127503228Y-95489733D02*
X127455609Y-95632590D01*
X127407990Y-95680209D01*
X127312752Y-95727828D01*
X127169895Y-95727828D01*
X127074657Y-95680209D01*
X127027038Y-95632590D01*
X126979419Y-95537352D01*
X126979419Y-95156400D01*
X127979419Y-95156400D01*
X127979419Y-95489733D01*
X127931800Y-95584971D01*
X127884180Y-95632590D01*
X127788942Y-95680209D01*
X127693704Y-95680209D01*
X127598466Y-95632590D01*
X127550847Y-95584971D01*
X127503228Y-95489733D01*
X127503228Y-95156400D01*
X127884180Y-96108780D02*
X127931800Y-96156400D01*
X127979419Y-96251638D01*
X127979419Y-96489733D01*
X127931800Y-96584971D01*
X127884180Y-96632590D01*
X127788942Y-96680209D01*
X127693704Y-96680209D01*
X127550847Y-96632590D01*
X126979419Y-96061161D01*
X126979419Y-96680209D01*
X126979419Y-91962409D02*
X127979419Y-91962409D01*
X127503228Y-92771933D02*
X127455609Y-92914790D01*
X127407990Y-92962409D01*
X127312752Y-93010028D01*
X127169895Y-93010028D01*
X127074657Y-92962409D01*
X127027038Y-92914790D01*
X126979419Y-92819552D01*
X126979419Y-92438600D01*
X127979419Y-92438600D01*
X127979419Y-92771933D01*
X127931800Y-92867171D01*
X127884180Y-92914790D01*
X127788942Y-92962409D01*
X127693704Y-92962409D01*
X127598466Y-92914790D01*
X127550847Y-92867171D01*
X127503228Y-92771933D01*
X127503228Y-92438600D01*
X126979419Y-93962409D02*
X126979419Y-93390980D01*
X126979419Y-93676695D02*
X127979419Y-93676695D01*
X127836561Y-93581457D01*
X127741323Y-93486219D01*
X127693704Y-93390980D01*
X165862047Y-115006428D02*
X166623952Y-115006428D01*
X166243000Y-115387380D02*
X166243000Y-114625476D01*
X166390628Y-104495552D02*
X166390628Y-103733647D01*
X165365180Y-91398600D02*
X165365180Y-91208123D01*
X165412800Y-91112885D01*
X165508038Y-91017647D01*
X165698514Y-90970028D01*
X166031847Y-90970028D01*
X166222323Y-91017647D01*
X166317561Y-91112885D01*
X166365180Y-91208123D01*
X166365180Y-91398600D01*
X166317561Y-91493838D01*
X166222323Y-91589076D01*
X166031847Y-91636695D01*
X165698514Y-91636695D01*
X165508038Y-91589076D01*
X165412800Y-91493838D01*
X165365180Y-91398600D01*
X166079466Y-90589076D02*
X166079466Y-90112885D01*
X166365180Y-90684314D02*
X165365180Y-90350980D01*
X166365180Y-90017647D01*
X166365180Y-89160504D02*
X166365180Y-89731933D01*
X166365180Y-89446219D02*
X165365180Y-89446219D01*
X165508038Y-89541457D01*
X165603276Y-89636695D01*
X165650895Y-89731933D01*
X165314380Y-83524600D02*
X165314380Y-83334123D01*
X165362000Y-83238885D01*
X165457238Y-83143647D01*
X165647714Y-83096028D01*
X165981047Y-83096028D01*
X166171523Y-83143647D01*
X166266761Y-83238885D01*
X166314380Y-83334123D01*
X166314380Y-83524600D01*
X166266761Y-83619838D01*
X166171523Y-83715076D01*
X165981047Y-83762695D01*
X165647714Y-83762695D01*
X165457238Y-83715076D01*
X165362000Y-83619838D01*
X165314380Y-83524600D01*
X166028666Y-82715076D02*
X166028666Y-82238885D01*
X166314380Y-82810314D02*
X165314380Y-82476980D01*
X166314380Y-82143647D01*
X165409619Y-81857933D02*
X165362000Y-81810314D01*
X165314380Y-81715076D01*
X165314380Y-81476980D01*
X165362000Y-81381742D01*
X165409619Y-81334123D01*
X165504857Y-81286504D01*
X165600095Y-81286504D01*
X165742952Y-81334123D01*
X166314380Y-81905552D01*
X166314380Y-81286504D01*
X130348028Y-99669552D02*
X130348028Y-98907647D01*
X129997247Y-111755228D02*
X130759152Y-111755228D01*
X130378200Y-112136180D02*
X130378200Y-111374276D01*
X129093885Y-77126472D02*
X128427219Y-77281233D01*
X129093885Y-77602662D01*
X129427219Y-78215757D02*
X129427219Y-78310995D01*
X129379600Y-78400281D01*
X129331980Y-78441948D01*
X129236742Y-78477662D01*
X129046266Y-78501472D01*
X128808171Y-78471710D01*
X128617695Y-78400281D01*
X128522457Y-78340757D01*
X128474838Y-78287186D01*
X128427219Y-78185995D01*
X128427219Y-78090757D01*
X128474838Y-78001472D01*
X128522457Y-77959805D01*
X128617695Y-77924091D01*
X128808171Y-77900281D01*
X129046266Y-77930043D01*
X129236742Y-78001472D01*
X129331980Y-78060995D01*
X129379600Y-78114567D01*
X129427219Y-78215757D01*
X128427219Y-79376472D02*
X128427219Y-78805043D01*
X128427219Y-79090757D02*
X129427219Y-79215757D01*
X129284361Y-79102662D01*
X129189123Y-78995519D01*
X129141504Y-78894329D01*
X131167238Y-70165767D02*
X131119619Y-70259814D01*
X131119619Y-70426481D01*
X131167238Y-70499100D01*
X131214857Y-70538386D01*
X131310095Y-70583624D01*
X131405333Y-70595529D01*
X131500571Y-70574100D01*
X131548190Y-70546719D01*
X131595809Y-70486005D01*
X131643428Y-70358624D01*
X131691047Y-70297910D01*
X131738666Y-70270529D01*
X131833904Y-70249100D01*
X131929142Y-70261005D01*
X132024380Y-70306243D01*
X132072000Y-70345529D01*
X132119619Y-70418148D01*
X132119619Y-70584814D01*
X132072000Y-70678862D01*
X131786285Y-71243148D02*
X131119619Y-71159814D01*
X131786285Y-70943148D02*
X131262476Y-70877672D01*
X131167238Y-70899100D01*
X131119619Y-70959814D01*
X131119619Y-71059814D01*
X131167238Y-71132433D01*
X131214857Y-71171719D01*
X131786285Y-71576481D02*
X130786285Y-71451481D01*
X131738666Y-71570529D02*
X131786285Y-71643148D01*
X131786285Y-71776481D01*
X131738666Y-71837195D01*
X131691047Y-71864576D01*
X131595809Y-71886005D01*
X131310095Y-71850291D01*
X131214857Y-71805052D01*
X131167238Y-71765767D01*
X131119619Y-71693148D01*
X131119619Y-71559814D01*
X131167238Y-71499100D01*
X131167238Y-72399100D02*
X131119619Y-72326481D01*
X131119619Y-72193148D01*
X131167238Y-72132433D01*
X131262476Y-72111005D01*
X131643428Y-72158624D01*
X131738666Y-72203862D01*
X131786285Y-72276481D01*
X131786285Y-72409814D01*
X131738666Y-72470529D01*
X131643428Y-72491957D01*
X131548190Y-72480052D01*
X131452952Y-72134814D01*
X131119619Y-72726481D02*
X131786285Y-72809814D01*
X131595809Y-72786005D02*
X131691047Y-72831243D01*
X131738666Y-72870529D01*
X131786285Y-72943148D01*
X131786285Y-73009814D01*
X131786285Y-73176481D02*
X131119619Y-73259814D01*
X131786285Y-73509814D01*
X131119619Y-73693148D02*
X131786285Y-73776481D01*
X132119619Y-73818148D02*
X132072000Y-73778862D01*
X132024380Y-73806243D01*
X132072000Y-73845529D01*
X132119619Y-73818148D01*
X132024380Y-73806243D01*
X131167238Y-73999100D02*
X131119619Y-74059814D01*
X131119619Y-74193148D01*
X131167238Y-74265767D01*
X131262476Y-74311005D01*
X131310095Y-74316957D01*
X131405333Y-74295529D01*
X131452952Y-74234814D01*
X131452952Y-74134814D01*
X131500571Y-74074100D01*
X131595809Y-74052672D01*
X131643428Y-74058624D01*
X131738666Y-74103862D01*
X131786285Y-74176481D01*
X131786285Y-74276481D01*
X131738666Y-74337195D01*
X131167238Y-74865767D02*
X131119619Y-74793148D01*
X131119619Y-74659814D01*
X131167238Y-74599100D01*
X131262476Y-74577672D01*
X131643428Y-74625291D01*
X131738666Y-74670529D01*
X131786285Y-74743148D01*
X131786285Y-74876481D01*
X131738666Y-74937195D01*
X131643428Y-74958624D01*
X131548190Y-74946719D01*
X131452952Y-74601481D01*
X131119619Y-75493148D02*
X132119619Y-75618148D01*
X131167238Y-75499100D02*
X131119619Y-75426481D01*
X131119619Y-75293148D01*
X131167238Y-75232433D01*
X131214857Y-75205052D01*
X131310095Y-75183624D01*
X131595809Y-75219338D01*
X131691047Y-75264576D01*
X131738666Y-75303862D01*
X131786285Y-75376481D01*
X131786285Y-75509814D01*
X131738666Y-75570529D01*
X131119619Y-76359814D02*
X132119619Y-76484814D01*
X131738666Y-76437195D02*
X131786285Y-76509814D01*
X131786285Y-76643148D01*
X131738666Y-76703862D01*
X131691047Y-76731243D01*
X131595809Y-76752672D01*
X131310095Y-76716957D01*
X131214857Y-76671719D01*
X131167238Y-76632433D01*
X131119619Y-76559814D01*
X131119619Y-76426481D01*
X131167238Y-76365767D01*
X131786285Y-77009814D02*
X131119619Y-77093148D01*
X131786285Y-77343148D02*
X131119619Y-77093148D01*
X130881523Y-76996719D01*
X130833904Y-76957433D01*
X130786285Y-76884814D01*
X131119619Y-78059814D02*
X132119619Y-78184814D01*
X131405333Y-78328862D01*
X132119619Y-78651481D01*
X131119619Y-78526481D01*
X131119619Y-78859814D02*
X131786285Y-78943148D01*
X132119619Y-78984814D02*
X132072000Y-78945529D01*
X132024380Y-78972910D01*
X132072000Y-79012195D01*
X132119619Y-78984814D01*
X132024380Y-78972910D01*
X131786285Y-79276481D02*
X131119619Y-79193148D01*
X131691047Y-79264576D02*
X131738666Y-79303862D01*
X131786285Y-79376481D01*
X131786285Y-79476481D01*
X131738666Y-79537195D01*
X131643428Y-79558624D01*
X131119619Y-79493148D01*
X131119619Y-80126481D02*
X131643428Y-80191957D01*
X131738666Y-80170529D01*
X131786285Y-80109814D01*
X131786285Y-79976481D01*
X131738666Y-79903862D01*
X131167238Y-80132433D02*
X131119619Y-80059814D01*
X131119619Y-79893148D01*
X131167238Y-79832433D01*
X131262476Y-79811005D01*
X131357714Y-79822910D01*
X131452952Y-79868148D01*
X131500571Y-79940767D01*
X131500571Y-80107433D01*
X131548190Y-80180052D01*
X131167238Y-80432433D02*
X131119619Y-80493148D01*
X131119619Y-80626481D01*
X131167238Y-80699100D01*
X131262476Y-80744338D01*
X131310095Y-80750291D01*
X131405333Y-80728862D01*
X131452952Y-80668148D01*
X131452952Y-80568148D01*
X131500571Y-80507433D01*
X131595809Y-80486005D01*
X131643428Y-80491957D01*
X131738666Y-80537195D01*
X131786285Y-80609814D01*
X131786285Y-80709814D01*
X131738666Y-80770529D01*
X131119619Y-81559814D02*
X132119619Y-81684814D01*
X132119619Y-81851481D01*
X132072000Y-81945529D01*
X131976761Y-82000291D01*
X131881523Y-82021719D01*
X131691047Y-82031243D01*
X131548190Y-82013386D01*
X131357714Y-81956243D01*
X131262476Y-81911005D01*
X131167238Y-81832433D01*
X131119619Y-81726481D01*
X131119619Y-81559814D01*
X131119619Y-82559814D02*
X131643428Y-82625291D01*
X131738666Y-82603862D01*
X131786285Y-82543148D01*
X131786285Y-82409814D01*
X131738666Y-82337195D01*
X131167238Y-82565767D02*
X131119619Y-82493148D01*
X131119619Y-82326481D01*
X131167238Y-82265767D01*
X131262476Y-82244338D01*
X131357714Y-82256243D01*
X131452952Y-82301481D01*
X131500571Y-82374100D01*
X131500571Y-82540767D01*
X131548190Y-82613386D01*
X131167238Y-82865767D02*
X131119619Y-82926481D01*
X131119619Y-83059814D01*
X131167238Y-83132433D01*
X131262476Y-83177672D01*
X131310095Y-83183624D01*
X131405333Y-83162195D01*
X131452952Y-83101481D01*
X131452952Y-83001481D01*
X131500571Y-82940767D01*
X131595809Y-82919338D01*
X131643428Y-82925291D01*
X131738666Y-82970529D01*
X131786285Y-83043148D01*
X131786285Y-83143148D01*
X131738666Y-83203862D01*
X131786285Y-83476481D02*
X131119619Y-83559814D01*
X131786285Y-83809814D02*
X131119619Y-83559814D01*
X130881523Y-83463386D01*
X130833904Y-83424100D01*
X130786285Y-83351481D01*
X131786285Y-84376481D02*
X130976761Y-84275291D01*
X130881523Y-84230052D01*
X130833904Y-84190767D01*
X130786285Y-84118148D01*
X130786285Y-84018148D01*
X130833904Y-83957433D01*
X131167238Y-84299100D02*
X131119619Y-84226481D01*
X131119619Y-84093148D01*
X131167238Y-84032433D01*
X131214857Y-84005052D01*
X131310095Y-83983624D01*
X131595809Y-84019338D01*
X131691047Y-84064576D01*
X131738666Y-84103862D01*
X131786285Y-84176481D01*
X131786285Y-84309814D01*
X131738666Y-84370529D01*
X131167238Y-84899100D02*
X131119619Y-84826481D01*
X131119619Y-84693148D01*
X131167238Y-84632433D01*
X131262476Y-84611005D01*
X131643428Y-84658624D01*
X131738666Y-84703862D01*
X131786285Y-84776481D01*
X131786285Y-84909814D01*
X131738666Y-84970529D01*
X131643428Y-84991957D01*
X131548190Y-84980052D01*
X131452952Y-84634814D01*
X131786285Y-85309814D02*
X131119619Y-85226481D01*
X131691047Y-85297910D02*
X131738666Y-85337195D01*
X131786285Y-85409814D01*
X131786285Y-85509814D01*
X131738666Y-85570529D01*
X131643428Y-85591957D01*
X131119619Y-85526481D01*
X131119619Y-85859814D02*
X131786285Y-85943148D01*
X132119619Y-85984814D02*
X132072000Y-85945529D01*
X132024380Y-85972910D01*
X132072000Y-86012195D01*
X132119619Y-85984814D01*
X132024380Y-85972910D01*
X131167238Y-86165767D02*
X131119619Y-86226481D01*
X131119619Y-86359814D01*
X131167238Y-86432433D01*
X131262476Y-86477672D01*
X131310095Y-86483624D01*
X131405333Y-86462195D01*
X131452952Y-86401481D01*
X131452952Y-86301481D01*
X131500571Y-86240767D01*
X131595809Y-86219338D01*
X131643428Y-86225291D01*
X131738666Y-86270529D01*
X131786285Y-86343148D01*
X131786285Y-86443148D01*
X131738666Y-86503862D01*
D12*
%TO.C,C8*%
X162453000Y-110993500D02*
X161273000Y-110993500D01*
X164150000Y-109293500D02*
X162453000Y-110993500D01*
X157333000Y-110993500D02*
X158513000Y-110993500D01*
X155636000Y-109303500D02*
X157333000Y-110993500D01*
D13*
X159893000Y-112943500D02*
G75*
G03*
X159893000Y-112943500I-100000J0D01*
G01*
D12*
X164150000Y-102493500D02*
X164150000Y-109293500D01*
X161273000Y-102493500D02*
X164150000Y-102493500D01*
X155636000Y-102493500D02*
X158513000Y-102493500D01*
X155636000Y-109303500D02*
X155636000Y-102493500D01*
%TO.C,C2*%
X155707400Y-88409200D02*
X156887400Y-88409200D01*
X154010400Y-90109200D02*
X155707400Y-88409200D01*
X160827400Y-88409200D02*
X159647400Y-88409200D01*
X162524400Y-90099200D02*
X160827400Y-88409200D01*
D13*
X158467400Y-86459200D02*
G75*
G03*
X158467400Y-86459200I-100000J0D01*
G01*
D12*
X154010400Y-96909200D02*
X154010400Y-90109200D01*
X156887400Y-96909200D02*
X154010400Y-96909200D01*
X162524400Y-96909200D02*
X159647400Y-96909200D01*
X162524400Y-90099200D02*
X162524400Y-96909200D01*
%TO.C,R5*%
X160974000Y-75050000D02*
X160974000Y-74810000D01*
X159574000Y-75050000D02*
X159574000Y-74810000D01*
D13*
%TO.C,R6*%
X154908800Y-79756000D02*
G75*
G03*
X154908800Y-79756000I-100000J0D01*
G01*
D12*
X161468800Y-83296000D02*
X161468800Y-85471000D01*
X161468800Y-79121000D02*
X161468800Y-81296000D01*
X158608800Y-79121000D02*
X161468800Y-79121000D01*
X157148800Y-83896000D02*
X157148800Y-80696000D01*
X161468800Y-85471000D02*
X158608800Y-85471000D01*
D13*
%TO.C,J6*%
X165942000Y-100139500D02*
G75*
G03*
X165942000Y-100139500I-100000J0D01*
G01*
D12*
X175042000Y-92519500D02*
X175042000Y-102679500D01*
X166842000Y-102679500D02*
X166842000Y-92519500D01*
X166842000Y-92519500D02*
X175042000Y-92519500D01*
X175042000Y-102679500D02*
X166842000Y-102679500D01*
D13*
%TO.C,J5*%
X165916600Y-89052400D02*
G75*
G03*
X165916600Y-89052400I-100000J0D01*
G01*
D12*
X175016600Y-81432400D02*
X175016600Y-91592400D01*
X166816600Y-91592400D02*
X166816600Y-81432400D01*
X166816600Y-81432400D02*
X175016600Y-81432400D01*
X175016600Y-91592400D02*
X166816600Y-91592400D01*
D13*
%TO.C,J2*%
X165878500Y-111442500D02*
G75*
G03*
X165878500Y-111442500I-100000J0D01*
G01*
D12*
X174978500Y-103822500D02*
X174978500Y-113982500D01*
X166778500Y-113982500D02*
X166778500Y-103822500D01*
X166778500Y-103822500D02*
X174978500Y-103822500D01*
X174978500Y-113982500D02*
X166778500Y-113982500D01*
D13*
%TO.C,J1*%
X136200000Y-103000000D02*
G75*
G03*
X136200000Y-103000000I-100000J0D01*
G01*
D12*
X126900000Y-110620000D02*
X126900000Y-100460000D01*
X135100000Y-100460000D02*
X135100000Y-110620000D01*
X135100000Y-110620000D02*
X126900000Y-110620000D01*
X126900000Y-100460000D02*
X135100000Y-100460000D01*
D13*
%TO.C,J8*%
X129919400Y-96563200D02*
G75*
G03*
X129919400Y-96563200I-100000J0D01*
G01*
D12*
X130819400Y-87913200D02*
X130819400Y-95913200D01*
X128819400Y-87913200D02*
X128819400Y-95913200D01*
X128819400Y-87913200D02*
X130819400Y-87913200D01*
X130819400Y-95913200D02*
X128819400Y-95913200D01*
D13*
%TO.C,C1*%
X143927500Y-90556000D02*
G75*
G03*
X143927500Y-90556000I-100000J0D01*
G01*
D12*
X148957500Y-88306000D02*
X145357500Y-88306000D01*
X152377500Y-84886000D02*
X148957500Y-88306000D01*
X152377500Y-71206000D02*
X152377500Y-84886000D01*
X145357500Y-71206000D02*
X152377500Y-71206000D01*
X135277500Y-71206000D02*
X142297500Y-71206000D01*
X135277500Y-84886000D02*
X135277500Y-71206000D01*
X138697500Y-88306000D02*
X135277500Y-84886000D01*
X142297500Y-88306000D02*
X138697500Y-88306000D01*
D13*
%TO.C,C6*%
X144372000Y-118500000D02*
G75*
G03*
X144372000Y-118500000I-100000J0D01*
G01*
D12*
X145842000Y-99350000D02*
X152872000Y-99350000D01*
X148772000Y-116550000D02*
X145842000Y-116550000D01*
X135672000Y-112450000D02*
X135672000Y-99350000D01*
X139772000Y-116550000D02*
X135672000Y-112450000D01*
X142702000Y-116550000D02*
X139772000Y-116550000D01*
X152872000Y-112450000D02*
X148772000Y-116550000D01*
X152872000Y-99350000D02*
X152872000Y-112450000D01*
X135672000Y-99350000D02*
X142702000Y-99350000D01*
%TD*%
M02*
